<svg width="730" height="120" viewBox="0 0 730 120" fill="none" xmlns="http://www.w3.org/2000/svg">
<g clip-path="url(#clip0_127_4)">
<path d="M156.783 22.4392H79.2454C77.7351 22.4392 76.2401 22.737 74.8449 23.3159C73.4496 23.8942 72.1831 24.7427 71.1159 25.8118C70.0493 26.8809 69.2042 28.1494 68.6284 29.5459C68.0527 30.9418 67.7581 32.438 67.7613 33.9483V86.8133C67.7613 88.3211 68.0578 89.8141 68.6355 91.2074C69.2125 92.6 70.0584 93.8653 71.1249 94.9311C72.1914 95.9971 73.458 96.8424 74.8513 97.4187C76.2446 97.995 77.7376 98.291 79.2454 98.2896H98.6526V117.036C98.6536 117.623 98.8293 118.196 99.1556 118.683C99.4819 119.169 99.9457 119.55 100.487 119.774C101.029 120 101.625 120.058 102.201 119.945C102.777 119.833 103.305 119.552 103.722 119.139L124.595 98.2652H156.783C158.291 98.2697 159.785 97.9763 161.179 97.4032C162.574 96.8301 163.842 95.9874 164.91 94.9241C165.979 93.8608 166.828 92.5968 167.407 91.2055C167.988 89.8134 168.288 88.3211 168.292 86.8133V33.9483C168.295 32.4361 167.999 30.9379 167.422 29.5401C166.845 28.1423 165.998 26.8725 164.928 25.8028C163.859 24.7337 162.589 23.8859 161.191 23.3089C159.793 22.7312 158.295 22.436 156.783 22.4392Z" fill="#00A86B"/>
<path d="M49.0587 22.439H5.93342C2.65666 22.439 0 25.0956 0 28.373V31.6736C0 34.9509 2.65666 37.6077 5.93342 37.6077H49.0587C52.3362 37.6077 54.9928 34.9509 54.9928 31.6736V28.373C54.9928 25.0956 52.3362 22.439 49.0587 22.439Z" fill="#00A86B"/>
<path d="M49.0821 52.7763H17.3348C14.058 52.7763 11.4014 55.4329 11.4014 58.7104V62.0116C11.4014 65.2884 14.058 67.945 17.3348 67.945H49.0821C52.3589 67.945 55.0155 65.2884 55.0155 62.0116V58.7104C55.0155 55.4329 52.3589 52.7763 49.0821 52.7763Z" fill="#00A86B"/>
<path d="M49.0509 81.2723H28.6499C25.3816 81.2723 22.7319 83.9218 22.7319 87.1895V90.4747C22.7319 93.7425 25.3816 96.392 28.6499 96.392H49.0509C52.3186 96.392 54.9682 93.7425 54.9682 90.4747V87.1895C54.9682 83.9218 52.3186 81.2723 49.0509 81.2723Z" fill="#00A86B"/>
</g>
<path d="M206.666 20.2839H223.278L236.092 70.0394L247.447 43.6983L240.906 20.2839H258.022L270.107 70.0394L282.695 20.2839H299.811L277.06 99.3074H263.557L253.243 69.8801L242.919 99.3074H228.31L206.666 20.2839Z" fill="#4C4C4C"/>
<path d="M314.412 99.3074H330.53V67.3642H352.183V99.3074H367.287V20.2839H352.175V51.5059H330.714V20.2839H314.412V99.3074Z" fill="#4C4C4C"/>
<path d="M418.649 20.2839H402.522L381.406 99.2992L399.017 99.3411L402.925 82.7194H420.469L424.453 99.3074H442.315L418.649 20.2839ZM404.862 65.1586L410.623 46.5915L416.377 65.1586H404.862Z" fill="#4C4C4C"/>
<path d="M502.409 20.0101H449.727V35.6169H467.287V99.1598H484.849V35.6169H502.409V20.0101Z" fill="#4C4C4C"/>
<path d="M555.101 66.8305V74.0511C555.099 76.7943 554.008 79.4241 552.067 81.363C550.126 83.3019 547.496 84.3911 544.753 84.3911H542.027C540.668 84.3932 539.321 84.1274 538.065 83.6089C536.808 83.0903 535.667 82.3293 534.705 81.3685C533.742 80.4083 532.979 79.2675 532.459 78.012C531.938 76.7565 531.67 75.4103 531.67 74.0511V44.0115C531.669 42.6529 531.935 41.3075 532.455 40.052C532.974 38.7965 533.736 37.6555 534.696 36.6945C535.656 35.7334 536.796 34.971 538.052 34.4508C539.306 33.9306 540.652 33.6629 542.01 33.6629H544.736C547.481 33.6629 550.113 34.7532 552.054 36.694C553.994 38.6347 555.085 41.2669 555.085 44.0115V47.366H570.691V40.6906C570.691 35.2058 568.513 29.9456 564.634 26.0673C560.756 22.1889 555.495 20.0101 550.011 20.0101H534.806C529.322 20.0101 524.062 22.1889 520.183 26.0673C516.305 29.9456 514.126 35.2058 514.126 40.6906V79.3176C514.126 84.8026 516.305 90.0629 520.183 93.9407C524.062 97.8191 529.322 99.9984 534.806 99.9984H550.028C555.513 99.9984 560.773 97.8191 564.651 93.9407C568.529 90.0629 570.708 84.8026 570.708 79.3176V66.8305H555.101Z" fill="#4C4C4C"/>
<path d="M627.271 76.5909C630.019 75.551 632.398 73.7224 634.111 71.3353C635.824 68.9483 636.793 66.1088 636.899 63.1728C636.899 63.1728 637.025 51.214 636.899 35.6072C636.773 20.0004 621.804 20.0004 621.804 20.0004H590.213V99.1501H605.828V78.6623L611.698 78.5366L621.259 99.1583H639.574L627.271 76.5909ZM621.401 41.4692V55.122C621.401 62.9296 613.593 62.2335 613.593 62.2335H605.794V35.6156H614.792C621.871 35.6156 621.401 41.4692 621.401 41.4692Z" fill="#4C4C4C"/>
<path d="M711.179 20.0101L694.359 68.7845L677.504 20.0101H658.496V99.2937H674.111V57.0773L687.511 99.2937H701.062L714.483 57.8992V99.2937H729.579V20.0101H711.179Z" fill="#4C4C4C"/>
<defs>
<clipPath id="clip0_127_4">
<rect width="168.29" height="120" fill="white"/>
</clipPath>
</defs>
</svg>
